<svg xmlns="http://www.w3.org/2000/svg" xmlnsXlink="http://www.w3.org/1999/xlink" version="1.1" id="Layer_1" x="0px" y="0px" width="100%" viewBox="0 0 1880 1410" enable-background="new 0 0 1880 1410" xmlSpace="preserve">
<path fill="#010000" opacity="1.000000" stroke="none" d=" M1034.000000,1411.000000   C689.333435,1411.000000 345.166870,1411.000000 1.000231,1411.000000   C1.000154,941.000244 1.000154,471.000488 1.000077,1.000546   C627.666199,1.000364 1254.332397,1.000364 1880.999023,1.000182   C1880.999268,470.999420 1880.999268,940.998840 1880.999634,1410.999146   C1598.833374,1411.000000 1316.666626,1411.000000 1034.000000,1411.000000  M1163.793579,658.489380   C1163.793579,664.239929 1163.793579,669.990540 1163.793579,675.626831   C1169.618164,675.626831 1174.508545,675.626831 1180.193115,675.626831   C1180.193115,603.919128 1180.193115,532.646545 1180.193115,460.002777   C1250.879028,535.171936 1320.499268,609.207764 1390.954956,684.132141   C1390.954956,596.430420 1390.954956,510.389801 1390.954956,424.382690   C1385.440674,424.382690 1380.509644,424.382690 1375.009644,424.382690   C1375.009644,497.054962 1375.009644,569.405945 1375.009644,641.756958   C1374.642212,641.923157 1374.274658,642.089417 1373.907227,642.255676   C1304.308960,568.754822 1234.710693,495.253937 1165.112427,421.753082   C1164.673706,421.917267 1164.234863,422.081451 1163.796143,422.245667   C1163.796143,500.661194 1163.796143,579.076721 1163.793579,658.489380  M1101.254150,623.916870   C1113.117920,607.600098 1121.062988,589.443848 1123.825317,569.564270   C1127.602173,542.383728 1124.208862,516.027649 1110.655762,491.625366   C1087.123779,449.256195 1051.470947,425.329315 1002.954956,420.885773   C986.561707,419.384338 970.640503,421.663513 955.171570,426.710785   C931.850830,434.319916 911.731506,447.069397 895.779663,465.944183   C876.528076,488.723297 864.553162,514.479065 864.031738,544.791138   C863.842529,555.792542 864.065735,566.667542 866.769714,577.570923   C874.247864,607.726013 889.970520,632.505737 914.405640,651.396362   C945.989197,675.813538 981.839111,685.233887 1021.044434,676.806335   C1054.008789,669.720459 1080.815552,651.960205 1101.254150,623.916870  M254.675613,659.129456   C275.255188,642.664795 283.019806,620.064331 279.135773,595.422607   C274.839630,568.166321 257.837708,549.467224 228.995560,542.529663   C230.768402,540.849854 231.556519,539.803589 232.595795,539.168152   C238.341232,535.655212 243.611343,531.534302 246.484863,525.333984   C250.128464,517.472046 254.812027,509.610809 256.135315,501.286407   C257.536926,492.468964 256.464142,482.932312 254.799133,474.022430   C251.531998,456.539124 242.990448,442.114471 227.166245,432.690674   C215.779663,425.909637 203.218689,424.401276 190.433258,424.185730   C173.275528,423.896454 156.107010,424.243958 138.949417,423.950073   C134.235245,423.869354 132.744537,425.040161 132.753784,429.958160   C132.904266,510.104797 132.858521,590.251831 132.873642,670.398743   C132.873978,672.157043 133.069077,673.915344 133.196609,676.066345   C141.203506,676.066345 148.677963,676.156433 156.149597,676.048889   C175.696198,675.767517 195.251083,675.669739 214.784256,674.978271   C229.566116,674.455017 242.489655,668.516235 254.675613,659.129456  M761.547913,874.925415   C783.175476,860.988220 804.813599,847.067322 826.425781,833.106262   C835.939819,826.960388 835.835693,818.408264 826.274292,812.243530   C799.857117,795.210938 773.460388,778.146545 747.040588,761.117981   C739.496948,756.255798 732.049805,751.217529 724.286621,746.730164   C717.294250,742.688171 712.255249,745.460205 711.184265,753.412415   C711.030396,754.555237 711.174011,755.737671 711.174072,756.901733   C711.174744,800.855835 711.078552,844.810486 711.356934,888.762817   C711.379333,892.290405 713.076660,896.829163 715.612610,899.060608   C718.788086,901.855103 723.051758,899.783569 726.595398,897.461731   C737.988403,889.997009 749.472412,882.671204 761.547913,874.925415  M640.071655,476.500000   C640.071655,494.564178 640.071655,512.628357 640.071655,530.579956   C588.575012,530.579956 538.015564,530.579956 486.892822,530.579956   C486.892822,494.982666 486.892822,459.760010 486.892822,424.752594   C486.030548,424.417694 485.731995,424.205872 485.428711,424.198853   C482.599396,424.133575 479.769257,424.071167 476.939331,424.069550   C470.147766,424.065582 470.142395,424.079010 470.142303,430.893311   C470.141022,510.364594 470.141327,589.835876 470.142639,669.307190   C470.142670,670.639893 469.864288,672.069763 470.260162,673.275574   C470.596527,674.300049 471.683167,675.786072 472.501373,675.828003   C477.241211,676.070923 481.999878,675.946655 487.247620,675.946655   C487.247620,632.322327 487.247620,589.422180 487.247620,546.359497   C538.330139,546.359497 588.888062,546.359497 640.202881,546.359497   C640.202881,589.672607 640.202881,632.688293 640.202881,675.662781   C645.876282,675.662781 650.783508,675.662781 656.169739,675.662781   C656.169739,673.304321 656.169739,671.334229 656.169739,669.364075   C656.169739,589.892761 656.170105,510.421478 656.167175,430.950165   C656.167114,429.451202 656.366089,427.894653 656.021484,426.474304   C655.806091,425.586456 654.773315,424.264923 654.058411,424.233032   C649.491760,424.029083 644.911560,424.129120 640.071655,424.129120   C640.071655,441.865417 640.071655,458.682709 640.071655,476.500000  M721.527649,676.068970   C757.592285,676.068970 793.656921,676.068970 830.046021,676.068970   C830.046021,672.285095 829.774170,669.430603 830.107117,666.648438   C830.663391,662.000854 828.849670,660.795654 824.291870,660.824097   C793.629944,661.015625 762.966248,660.923645 732.303162,660.923523   C730.337158,660.923523 728.371155,660.923462 726.770264,660.923462   C726.770264,622.656250 726.770264,584.938599 726.770264,546.840942   C729.361755,546.840942 731.327942,546.840942 733.294189,546.840942   C761.457581,546.841064 789.620972,546.840576 817.784363,546.841553   C828.249695,546.841919 828.240295,546.725159 827.864502,535.922302   C827.730225,532.060791 826.523682,529.971436 822.380676,530.274231   C820.723938,530.395264 819.049561,530.265015 817.383179,530.264771   C789.219788,530.261230 761.055969,530.183594 732.893433,530.335144   C728.292786,530.359863 726.634583,529.181152 726.678467,524.209534   C726.927734,495.981781 726.799194,467.750732 726.799194,438.976440   C760.908630,438.976440 795.159363,438.976440 829.555420,438.976440   C829.555420,433.743286 829.555420,429.068756 829.555420,424.366943   C789.481079,424.366943 749.897949,424.366943 710.035706,424.366943   C710.035706,508.367279 710.035706,592.054443 710.035706,676.068970   C713.902161,676.068970 717.222290,676.068970 721.527649,676.068970  M1445.205322,560.499939   C1445.205933,597.331604 1445.253174,634.163330 1445.136719,670.994629   C1445.124634,674.780273 1445.972412,676.336243 1450.106689,676.159302   C1457.759033,675.831604 1465.435303,676.066162 1473.101685,676.066101   C1502.267090,676.065857 1531.432373,676.046265 1560.597778,676.095093   C1563.464355,676.099915 1566.069092,676.130066 1566.191772,672.295776   C1566.234375,670.963745 1566.273926,669.630859 1566.274048,668.298340   C1566.274780,661.089355 1566.123535,660.928955 1559.145996,660.928162   C1528.813965,660.924561 1498.482056,660.926392 1468.150024,660.926331   C1466.184814,660.926331 1464.219727,660.926392 1462.012939,660.926392   C1461.834229,659.170776 1461.587280,657.873169 1461.586670,656.575378   C1461.570312,621.910278 1461.635376,587.245056 1461.517212,552.580383   C1461.501465,547.968811 1463.159546,546.694214 1467.686279,546.740967   C1489.183105,546.962891 1510.683472,546.840454 1532.182495,546.839478   C1541.015381,546.839111 1549.849487,546.755615 1558.680664,546.880005   C1561.554077,546.920410 1563.048340,546.180298 1562.911987,543.000610   C1562.743652,539.069397 1562.871704,535.125488 1562.871704,530.754089   C1559.890381,530.576538 1557.432373,530.305481 1554.973999,530.302795   C1526.475220,530.272156 1497.976562,530.296936 1469.477783,530.270935   C1462.181274,530.264282 1461.559692,529.623352 1461.553467,522.214661   C1461.531616,496.382446 1461.538940,470.550262 1461.563232,444.718048   C1461.564941,442.946777 1461.796509,441.175690 1461.942993,439.093964   C1464.408081,439.093964 1466.395142,439.093994 1468.382324,439.093964   C1499.047607,439.093689 1529.713013,439.100006 1560.378296,439.087097   C1565.963257,439.084747 1566.282104,438.637482 1566.276978,431.489624   C1566.271973,424.442261 1565.988403,424.065125 1560.226562,424.063629   C1523.728149,424.054169 1487.229858,424.055420 1450.731445,424.068542   C1449.111694,424.069122 1447.491943,424.218964 1445.205322,424.332367   C1445.205322,469.612091 1445.205322,514.555969 1445.205322,560.499939  M1356.165771,903.325256   C1369.640503,912.122559 1384.309937,913.577332 1399.772217,910.580017   C1408.671265,908.854980 1416.492432,904.853027 1423.012817,898.801758   C1430.872437,891.507385 1435.633057,882.335632 1437.198120,870.940796   C1424.811890,870.940796 1412.844238,871.012512 1400.878540,870.888916   C1397.995728,870.859131 1396.189697,871.416321 1394.494385,874.195618   C1391.193726,879.606995 1384.629517,880.389099 1380.951172,876.212097   C1377.354980,872.128540 1377.154175,867.133911 1377.139648,862.011902   C1387.276978,862.011902 1396.766968,862.012756 1406.256958,862.011719   C1415.256836,862.010742 1424.257568,861.931213 1433.256104,862.040588   C1437.277344,862.089417 1438.784668,860.893616 1439.156250,856.374634   C1439.874878,847.633362 1438.031128,839.415771 1435.974854,831.162476   C1433.467041,821.097229 1428.793457,811.936646 1421.001831,805.147461   C1408.161377,793.959045 1393.116943,790.474365 1376.324707,794.317993   C1362.013916,797.593689 1351.484863,805.710022 1343.956177,818.070618   C1334.703857,833.260986 1333.009155,850.044006 1335.286499,867.035400   C1337.203247,881.337524 1343.023804,894.235535 1356.165771,903.325256  M1064.688843,796.767639   C1064.278687,797.041626 1063.895264,797.371704 1063.454590,797.581543   C1039.817627,808.836487 1034.412109,830.323242 1032.638794,853.489563   C1032.228394,858.852722 1033.892944,864.478088 1035.170410,869.847717   C1039.160034,886.617188 1047.255859,900.426880 1063.932251,907.536438   C1074.416260,912.006042 1085.216675,913.135803 1096.554565,911.143188   C1109.771851,908.820251 1120.754395,902.991821 1128.383057,891.933899   C1140.750732,874.006897 1142.201172,853.924622 1137.491089,833.476685   C1132.031494,809.776001 1116.060425,795.366333 1092.407593,792.804504   C1083.419556,791.830994 1074.066650,793.314636 1064.688843,796.767639  M1200.828979,845.037170   C1198.234863,829.912170 1195.561646,814.800049 1193.102051,799.653198   C1192.486206,795.860718 1190.955078,794.226746 1186.909546,794.312866   C1176.255737,794.539795 1165.591797,794.519226 1154.936646,794.328003   C1150.463013,794.247681 1149.477173,795.590088 1150.735718,799.956787   C1155.056030,814.947754 1158.978394,830.052795 1163.132324,845.092346   C1168.695312,865.233582 1174.407593,885.333923 1179.873413,905.501221   C1180.939453,909.435059 1182.904419,910.764771 1186.939941,910.669678   C1197.592529,910.418457 1208.261108,910.374268 1218.910645,910.682129   C1223.539551,910.815979 1225.746216,909.287598 1227.011108,904.766785   C1232.462891,885.283386 1238.276123,865.901611 1243.880615,846.460571   C1248.400513,830.781677 1252.762085,815.057068 1257.312012,799.387024   C1258.158081,796.473389 1258.395264,794.388000 1254.477051,794.390137   C1243.152466,794.396118 1231.822144,794.223083 1220.509644,794.593079   C1218.946899,794.644165 1216.455688,797.165039 1216.112183,798.885620   C1212.506958,816.940247 1209.288818,835.071838 1205.811157,853.152832   C1205.595947,854.271240 1204.098999,855.143066 1202.602051,856.782776   C1201.910034,852.249634 1201.414062,849.000305 1200.828979,845.037170  M1457.924927,842.962158   C1462.578735,854.381958 1472.110352,860.038513 1482.906250,864.320801   C1486.895264,865.903076 1490.950806,867.587463 1494.457642,869.983826   C1495.878540,870.954773 1496.891479,874.294739 1496.314941,875.931458   C1495.705566,877.661316 1493.101440,879.530396 1491.159546,879.793030   C1485.061646,880.617859 1479.541138,878.625671 1474.739014,874.718201   C1472.483032,872.882324 1470.161255,871.127380 1467.453857,869.011108   C1462.792725,878.458740 1458.540405,887.431152 1453.940063,896.221436   C1452.193359,899.558838 1453.365723,900.814026 1456.272217,902.224365   C1468.463501,908.140198 1480.932129,912.497864 1494.820190,911.903625   C1507.752808,911.350220 1519.408691,907.589966 1528.282593,898.093140   C1540.370239,885.156799 1544.601196,866.620117 1531.364258,852.000610   C1526.595581,846.733765 1519.111572,843.904846 1512.812256,840.052124   C1508.776733,837.583923 1504.368530,835.623108 1500.697998,832.714661   C1499.388062,831.676758 1498.917969,828.180542 1499.623047,826.436584   C1500.196655,825.017761 1503.326660,823.498718 1504.919800,823.850464   C1508.840210,824.715881 1512.649658,826.392822 1516.265747,828.215698   C1518.521484,829.352905 1520.344360,831.348877 1522.523682,833.088928   C1527.403687,822.541870 1532.027466,812.548706 1536.776123,802.285767   C1518.408691,793.152344 1500.258057,789.686035 1480.981201,796.795593   C1461.788208,803.874023 1452.085571,822.879028 1457.924927,842.962158  M360.985931,660.491516   C360.985931,665.571106 360.985931,670.650696 360.985931,676.063232   C365.580505,676.063232 368.890778,676.068359 372.201019,676.062195   C378.830444,676.049927 378.837646,676.047363 378.837860,669.589722   C378.839783,612.110962 378.838959,554.632141 378.838959,497.153381   C378.838959,477.904968 378.838959,458.656525 378.838959,439.094269   C380.852173,439.094269 382.667969,439.094360 384.483734,439.094299   C402.310486,439.093719 420.137634,439.145081 437.963318,439.005341   C439.602234,438.992493 442.545013,437.912262 442.643341,437.067230   C443.130402,432.879974 442.865326,428.605225 442.865326,424.057922   C439.986176,424.057922 437.999573,424.057922 436.012939,424.057922   C411.355377,424.057892 386.697845,424.057617 362.040283,424.057861   C341.714447,424.058044 321.387939,424.145691 301.063416,423.984070   C297.118042,423.952698 295.549286,425.423248 295.678741,429.173828   C295.730469,430.671539 295.705872,432.172394 295.695465,433.671631   C295.669189,437.462311 297.009155,439.247772 301.329163,439.191498   C319.319458,438.957184 337.314606,439.093781 355.307953,439.094330   C357.091797,439.094391 358.875641,439.094330 360.990326,439.094330   C360.990326,512.918396 360.990326,586.206482 360.985931,660.491516  M1273.337036,886.499268   C1273.341431,892.494080 1273.426514,898.490356 1273.322876,904.483276   C1273.249146,908.755981 1274.643677,910.826416 1279.437988,910.677185   C1289.586060,910.361389 1299.754517,910.420349 1309.907104,910.654785   C1314.441162,910.759460 1316.042725,909.194458 1316.024780,904.595520   C1315.888428,869.792603 1315.901733,834.988770 1316.017212,800.185669   C1316.031372,795.904480 1314.649048,794.217834 1310.249146,794.321533   C1300.596191,794.549072 1290.934082,794.390503 1281.275757,794.392151   C1273.540161,794.393494 1273.343018,794.558350 1273.338867,802.570068   C1273.324707,830.212952 1273.339844,857.855835 1273.337036,886.499268  M898.819214,910.753296   C899.591736,909.049927 900.928772,907.384583 901.046509,905.637085   C901.908447,892.843750 902.506775,880.032776 903.226013,867.229553   C903.905640,855.132080 904.631409,843.037231 905.336853,830.941223   C905.942688,831.649292 906.114319,832.419617 906.232300,833.198120   C909.799194,856.737427 913.397522,880.272156 916.900513,903.820923   C917.916260,910.648682 918.248718,911.110657 924.901855,911.128418   C933.400208,911.151062 941.904480,910.944824 950.394653,911.209290   C954.884033,911.349121 956.983643,909.814758 957.769592,905.261597   C960.346985,890.330444 963.290710,875.462830 966.057983,860.564148   C968.140198,849.353394 970.167480,838.132385 972.219299,826.915955   C972.817200,827.632202 972.908081,828.282776 972.934631,828.935974   C973.956238,854.066772 974.969971,879.197937 975.989868,904.328857   C976.241882,910.538513 976.810425,911.111633 983.080994,911.126038   C994.745422,911.152710 1006.409973,911.152832 1018.074402,911.126343   C1024.835571,911.110962 1025.442749,910.356018 1024.764404,903.496521   C1023.142456,887.093750 1021.533875,870.689575 1019.945984,854.283447   C1016.625122,819.972717 1013.265503,785.665466 1010.073181,751.342712   C1009.621216,746.483093 1007.531738,744.823120 1002.727234,744.895752   C988.066711,745.117432 973.398010,745.133911 958.738281,744.887024   C953.915527,744.805908 951.872803,746.690002 951.079773,751.267700   C948.863098,764.062744 946.332458,776.803040 943.991516,789.576965   C942.193909,799.385559 940.496155,809.212341 938.532837,820.277283   C938.123352,818.474854 937.982300,818.002075 937.911133,817.518982   C934.658142,795.443787 931.351318,773.376282 928.215698,751.284424   C927.601196,746.954834 925.961548,744.832031 921.202637,744.898743   C905.875183,745.113586 890.542236,745.061279 875.212952,744.929932   C871.209961,744.895630 869.452393,746.618774 869.048340,750.419861   C868.414734,756.380188 867.591919,762.320068 866.899475,768.274475   C863.360779,798.704468 859.849731,829.137695 856.304932,859.566956   C854.551514,874.618530 852.755920,889.665100 850.956970,904.711304   C850.498291,908.547852 851.085266,911.235291 855.965393,911.170593   C869.958740,910.984741 883.955017,911.024109 898.819214,910.753296  M1287.247803,783.173035   C1302.489502,787.944763 1314.252075,780.287048 1320.175415,761.736267   C1322.754150,753.660278 1313.022095,739.448181 1301.976440,736.196167   C1288.861816,732.334778 1276.073242,737.303955 1269.577637,756.053467   C1266.763916,764.175232 1276.269409,779.297974 1287.247803,783.173035  z"/>
<path fill="#F60101" opacity="1.000000" stroke="none" d=" M1163.794922,657.990845   C1163.796143,579.076721 1163.796143,500.661194 1163.796143,422.245667   C1164.234863,422.081451 1164.673706,421.917267 1165.112427,421.753082   C1234.710693,495.253937 1304.308960,568.754822 1373.907227,642.255676   C1374.274658,642.089417 1374.642212,641.923157 1375.009644,641.756958   C1375.009644,569.405945 1375.009644,497.054962 1375.009644,424.382690   C1380.509644,424.382690 1385.440674,424.382690 1390.954956,424.382690   C1390.954956,510.389801 1390.954956,596.430420 1390.954956,684.132141   C1320.499268,609.207764 1250.879028,535.171936 1180.193115,460.002777   C1180.193115,532.646545 1180.193115,603.919128 1180.193115,675.626831   C1174.508545,675.626831 1169.618164,675.626831 1163.793579,675.626831   C1163.793579,669.990540 1163.793579,664.239929 1163.794922,657.990845  z"/>
<path fill="#F60101" opacity="1.000000" stroke="none" d=" M1101.055176,624.213501   C1080.815552,651.960205 1054.008789,669.720459 1021.044434,676.806335   C981.839111,685.233887 945.989197,675.813538 914.405640,651.396362   C889.970520,632.505737 874.247864,607.726013 866.769714,577.570923   C864.065735,566.667542 863.842529,555.792542 864.031738,544.791138   C864.553162,514.479065 876.528076,488.723297 895.779663,465.944183   C911.731506,447.069397 931.850830,434.319916 955.171570,426.710785   C970.640503,421.663513 986.561707,419.384338 1002.954956,420.885773   C1051.470947,425.329315 1087.123779,449.256195 1110.655762,491.625366   C1124.208862,516.027649 1127.602173,542.383728 1123.825317,569.564270   C1121.062988,589.443848 1113.117920,607.600098 1101.055176,624.213501  M891.866516,500.421204   C880.961426,521.723511 877.560791,544.344727 881.390869,567.786621   C885.431824,592.519043 896.942017,613.647766 914.789124,631.287292   C926.420410,642.783203 940.062378,651.238647 955.236694,657.036621   C962.176392,659.688232 969.531128,661.550659 976.863708,662.783081   C982.713928,663.766235 988.817200,663.412231 994.805603,663.359009   C1001.117249,663.302795 1007.678833,663.915527 1013.679382,662.421387   C1023.981689,659.856201 1034.435913,656.920776 1043.945557,652.319824   C1088.119873,630.947327 1114.526123,584.046143 1107.878662,534.380981   C1105.854736,519.260132 1100.852295,505.048828 1092.765015,492.146698   C1074.437012,462.906342 1049.030396,444.148956 1014.333679,438.018311   C999.000671,435.309174 984.131531,435.467194 969.275452,438.870758   C934.049561,446.941132 908.797363,467.963562 891.866516,500.421204  z"/>
<path fill="#F60202" opacity="1.000000" stroke="none" d=" M254.367706,659.309814   C242.489655,668.516235 229.566116,674.455017 214.784256,674.978271   C195.251083,675.669739 175.696198,675.767517 156.149597,676.048889   C148.677963,676.156433 141.203506,676.066345 133.196609,676.066345   C133.069077,673.915344 132.873978,672.157043 132.873642,670.398743   C132.858521,590.251831 132.904266,510.104797 132.753784,429.958160   C132.744537,425.040161 134.235245,423.869354 138.949417,423.950073   C156.107010,424.243958 173.275528,423.896454 190.433258,424.185730   C203.218689,424.401276 215.779663,425.909637 227.166245,432.690674   C242.990448,442.114471 251.531998,456.539124 254.799133,474.022430   C256.464142,482.932312 257.536926,492.468964 256.135315,501.286407   C254.812027,509.610809 250.128464,517.472046 246.484863,525.333984   C243.611343,531.534302 238.341232,535.655212 232.595795,539.168152   C231.556519,539.803589 230.768402,540.849854 228.995560,542.529663   C257.837708,549.467224 274.839630,568.166321 279.135773,595.422607   C283.019806,620.064331 275.255188,642.664795 254.367706,659.309814  M160.546661,553.384766   C159.546799,553.384705 158.546921,553.384338 157.547058,553.384705   C149.774216,553.387817 149.772827,553.387817 149.772675,561.349854   C149.772064,592.511047 149.772400,623.672180 149.772385,654.833374   C149.772385,656.767395 149.772400,658.701416 149.772400,660.735779   C167.030029,660.735779 183.839035,660.796082 200.646698,660.672363   C203.241882,660.653198 205.813354,659.608704 208.426498,659.355957   C213.140106,658.900085 218.056610,659.394348 222.574524,658.251343   C249.496735,651.440063 271.277466,622.330627 260.347595,589.152649   C255.846024,575.487976 247.642090,565.443481 233.811478,560.152039   C223.456421,556.190247 212.994873,554.586182 201.895050,554.749939   C188.451141,554.948242 174.988770,553.895996 160.546661,553.384766  M183.492966,538.169373   C189.634827,537.777100 195.880264,537.962402 201.898880,536.882935   C218.995758,533.816467 231.877289,524.766785 237.330658,507.815033   C240.427124,498.189758 241.027695,488.159576 239.055161,477.758484   C235.548721,459.269165 225.515274,447.041718 207.558472,441.996338   C200.647202,440.054443 193.195877,439.654846 185.956909,439.348297   C175.147263,438.890472 164.306015,439.231354 153.482101,439.026520   C150.170685,438.963867 148.754944,439.761810 148.769928,443.428467   C148.893127,473.577637 148.894516,503.727783 148.766830,533.876892   C148.751099,537.592590 150.268417,538.279297 153.512527,538.228027   C163.171341,538.075256 172.834091,538.172180 183.492966,538.169373  z"/>
<path fill="#FB0101" opacity="1.000000" stroke="none" d=" M761.234619,875.108643   C749.472412,882.671204 737.988403,889.997009 726.595398,897.461731   C723.051758,899.783569 718.788086,901.855103 715.612610,899.060608   C713.076660,896.829163 711.379333,892.290405 711.356934,888.762817   C711.078552,844.810486 711.174744,800.855835 711.174072,756.901733   C711.174011,755.737671 711.030396,754.555237 711.184265,753.412415   C712.255249,745.460205 717.294250,742.688171 724.286621,746.730164   C732.049805,751.217529 739.496948,756.255798 747.040588,761.117981   C773.460388,778.146545 799.857117,795.210938 826.274292,812.243530   C835.835693,818.408264 835.939819,826.960388 826.425781,833.106262   C804.813599,847.067322 783.175476,860.988220 761.234619,875.108643  z"/>
<path fill="#F70102" opacity="1.000000" stroke="none" d=" M640.071655,476.000000   C640.071655,458.682709 640.071655,441.865417 640.071655,424.129120   C644.911560,424.129120 649.491760,424.029083 654.058411,424.233032   C654.773315,424.264923 655.806091,425.586456 656.021484,426.474304   C656.366089,427.894653 656.167114,429.451202 656.167175,430.950165   C656.170105,510.421478 656.169739,589.892761 656.169739,669.364075   C656.169739,671.334229 656.169739,673.304321 656.169739,675.662781   C650.783508,675.662781 645.876282,675.662781 640.202881,675.662781   C640.202881,632.688293 640.202881,589.672607 640.202881,546.359497   C588.888062,546.359497 538.330139,546.359497 487.247620,546.359497   C487.247620,589.422180 487.247620,632.322327 487.247620,675.946655   C481.999878,675.946655 477.241211,676.070923 472.501373,675.828003   C471.683167,675.786072 470.596527,674.300049 470.260162,673.275574   C469.864288,672.069763 470.142670,670.639893 470.142639,669.307190   C470.141327,589.835876 470.141022,510.364594 470.142303,430.893311   C470.142395,424.079010 470.147766,424.065582 476.939331,424.069550   C479.769257,424.071167 482.599396,424.133575 485.428711,424.198853   C485.731995,424.205872 486.030548,424.417694 486.892822,424.752594   C486.892822,459.760010 486.892822,494.982666 486.892822,530.579956   C538.015564,530.579956 588.575012,530.579956 640.071655,530.579956   C640.071655,512.628357 640.071655,494.564178 640.071655,476.000000  z"/>
<path fill="#F50202" opacity="1.000000" stroke="none" d=" M721.035034,676.068970   C717.222290,676.068970 713.902161,676.068970 710.035706,676.068970   C710.035706,592.054443 710.035706,508.367279 710.035706,424.366943   C749.897949,424.366943 789.481079,424.366943 829.555420,424.366943   C829.555420,429.068756 829.555420,433.743286 829.555420,438.976440   C795.159363,438.976440 760.908630,438.976440 726.799194,438.976440   C726.799194,467.750732 726.927734,495.981781 726.678467,524.209534   C726.634583,529.181152 728.292786,530.359863 732.893433,530.335144   C761.055969,530.183594 789.219788,530.261230 817.383179,530.264771   C819.049561,530.265015 820.723938,530.395264 822.380676,530.274231   C826.523682,529.971436 827.730225,532.060791 827.864502,535.922302   C828.240295,546.725159 828.249695,546.841919 817.784363,546.841553   C789.620972,546.840576 761.457581,546.841064 733.294189,546.840942   C731.327942,546.840942 729.361755,546.840942 726.770264,546.840942   C726.770264,584.938599 726.770264,622.656250 726.770264,660.923462   C728.371155,660.923462 730.337158,660.923523 732.303162,660.923523   C762.966248,660.923645 793.629944,661.015625 824.291870,660.824097   C828.849670,660.795654 830.663391,662.000854 830.107117,666.648438   C829.774170,669.430603 830.046021,672.285095 830.046021,676.068970   C793.656921,676.068970 757.592285,676.068970 721.035034,676.068970  z"/>
<path fill="#F60101" opacity="1.000000" stroke="none" d=" M1445.205322,559.999878   C1445.205322,514.555969 1445.205322,469.612091 1445.205322,424.332367   C1447.491943,424.218964 1449.111694,424.069122 1450.731445,424.068542   C1487.229858,424.055420 1523.728149,424.054169 1560.226562,424.063629   C1565.988403,424.065125 1566.271973,424.442261 1566.276978,431.489624   C1566.282104,438.637482 1565.963257,439.084747 1560.378296,439.087097   C1529.713013,439.100006 1499.047607,439.093689 1468.382324,439.093964   C1466.395142,439.093994 1464.408081,439.093964 1461.942993,439.093964   C1461.796509,441.175690 1461.564941,442.946777 1461.563232,444.718048   C1461.538940,470.550262 1461.531616,496.382446 1461.553467,522.214661   C1461.559692,529.623352 1462.181274,530.264282 1469.477783,530.270935   C1497.976562,530.296936 1526.475220,530.272156 1554.973999,530.302795   C1557.432373,530.305481 1559.890381,530.576538 1562.871704,530.754089   C1562.871704,535.125488 1562.743652,539.069397 1562.911987,543.000610   C1563.048340,546.180298 1561.554077,546.920410 1558.680664,546.880005   C1549.849487,546.755615 1541.015381,546.839111 1532.182495,546.839478   C1510.683472,546.840454 1489.183105,546.962891 1467.686279,546.740967   C1463.159546,546.694214 1461.501465,547.968811 1461.517212,552.580383   C1461.635376,587.245056 1461.570312,621.910278 1461.586670,656.575378   C1461.587280,657.873169 1461.834229,659.170776 1462.012939,660.926392   C1464.219727,660.926392 1466.184814,660.926331 1468.150024,660.926331   C1498.482056,660.926392 1528.813965,660.924561 1559.145996,660.928162   C1566.123535,660.928955 1566.274780,661.089355 1566.274048,668.298340   C1566.273926,669.630859 1566.234375,670.963745 1566.191772,672.295776   C1566.069092,676.130066 1563.464355,676.099915 1560.597778,676.095093   C1531.432373,676.046265 1502.267090,676.065857 1473.101685,676.066101   C1465.435303,676.066162 1457.759033,675.831604 1450.106689,676.159302   C1445.972412,676.336243 1445.124634,674.780273 1445.136719,670.994629   C1445.253174,634.163330 1445.205933,597.331604 1445.205322,559.999878  z"/>
<path fill="#FA0101" opacity="1.000000" stroke="none" d=" M1355.861084,903.130005   C1343.023804,894.235535 1337.203247,881.337524 1335.286499,867.035400   C1333.009155,850.044006 1334.703857,833.260986 1343.956177,818.070618   C1351.484863,805.710022 1362.013916,797.593689 1376.324707,794.317993   C1393.116943,790.474365 1408.161377,793.959045 1421.001831,805.147461   C1428.793457,811.936646 1433.467041,821.097229 1435.974854,831.162476   C1438.031128,839.415771 1439.874878,847.633362 1439.156250,856.374634   C1438.784668,860.893616 1437.277344,862.089417 1433.256104,862.040588   C1424.257568,861.931213 1415.256836,862.010742 1406.256958,862.011719   C1396.766968,862.012756 1387.276978,862.011902 1377.139648,862.011902   C1377.154175,867.133911 1377.354980,872.128540 1380.951172,876.212097   C1384.629517,880.389099 1391.193726,879.606995 1394.494385,874.195618   C1396.189697,871.416321 1397.995728,870.859131 1400.878540,870.888916   C1412.844238,871.012512 1424.811890,870.940796 1437.198120,870.940796   C1435.633057,882.335632 1430.872437,891.507385 1423.012817,898.801758   C1416.492432,904.853027 1408.671265,908.854980 1399.772217,910.580017   C1384.309937,913.577332 1369.640503,912.122559 1355.861084,903.130005  M1392.096558,826.297546   C1388.690674,823.821350 1385.019409,823.055359 1381.594727,825.850342   C1377.867798,828.891846 1376.901978,833.186096 1377.057251,838.130371   C1383.586914,838.130371 1389.679932,838.130371 1397.302002,838.130371   C1395.540527,833.854980 1394.088867,830.331787 1392.096558,826.297546  z"/>
<path fill="#FA0100" opacity="1.000000" stroke="none" d=" M1065.024658,796.767090   C1074.066650,793.314636 1083.419556,791.830994 1092.407593,792.804504   C1116.060425,795.366333 1132.031494,809.776001 1137.491089,833.476685   C1142.201172,853.924622 1140.750732,874.006897 1128.383057,891.933899   C1120.754395,902.991821 1109.771851,908.820251 1096.554565,911.143188   C1085.216675,913.135803 1074.416260,912.006042 1063.932251,907.536438   C1047.255859,900.426880 1039.160034,886.617188 1035.170410,869.847717   C1033.892944,864.478088 1032.228394,858.852722 1032.638794,853.489563   C1034.412109,830.323242 1039.817627,808.836487 1063.454590,797.581543   C1063.895264,797.371704 1064.278687,797.041626 1065.024658,796.767090  M1091.031250,878.892517   C1092.026489,877.789429 1093.432129,876.852051 1093.954224,875.558044   C1100.135864,860.239197 1100.271118,844.764465 1093.796753,829.603760   C1092.824585,827.327209 1088.308228,824.987976 1085.822144,825.351257   C1083.008179,825.762390 1079.265869,828.695801 1078.299683,831.384888   C1073.323975,845.234558 1073.385498,859.434143 1078.057495,873.387939   C1080.044922,879.324036 1084.082397,880.858765 1091.031250,878.892517  z"/>
<path fill="#F70101" opacity="1.000000" stroke="none" d=" M1200.873535,845.394104   C1201.414062,849.000305 1201.910034,852.249634 1202.602051,856.782776   C1204.098999,855.143066 1205.595947,854.271240 1205.811157,853.152832   C1209.288818,835.071838 1212.506958,816.940247 1216.112183,798.885620   C1216.455688,797.165039 1218.946899,794.644165 1220.509644,794.593079   C1231.822144,794.223083 1243.152466,794.396118 1254.477051,794.390137   C1258.395264,794.388000 1258.158081,796.473389 1257.312012,799.387024   C1252.762085,815.057068 1248.400513,830.781677 1243.880615,846.460571   C1238.276123,865.901611 1232.462891,885.283386 1227.011108,904.766785   C1225.746216,909.287598 1223.539551,910.815979 1218.910645,910.682129   C1208.261108,910.374268 1197.592529,910.418457 1186.939941,910.669678   C1182.904419,910.764771 1180.939453,909.435059 1179.873413,905.501221   C1174.407593,885.333923 1168.695312,865.233582 1163.132324,845.092346   C1158.978394,830.052795 1155.056030,814.947754 1150.735718,799.956787   C1149.477173,795.590088 1150.463013,794.247681 1154.936646,794.328003   C1165.591797,794.519226 1176.255737,794.539795 1186.909546,794.312866   C1190.955078,794.226746 1192.486206,795.860718 1193.102051,799.653198   C1195.561646,814.800049 1198.234863,829.912170 1200.873535,845.394104  M1203.853149,860.874512   C1203.624878,861.522705 1203.363403,862.162903 1203.205566,862.827820   C1203.182983,862.923523 1203.660400,863.137939 1203.906372,863.297363   C1204.130981,862.624878 1204.355469,861.952393 1203.853149,860.874512  M1204.759155,859.559387   C1204.565063,859.479492 1204.370850,859.399536 1204.176758,859.319641   C1204.230103,859.525085 1204.283325,859.730530 1204.759155,859.559387  z"/>
<path fill="#F90101" opacity="1.000000" stroke="none" d=" M1457.908081,842.658142   C1452.085571,822.879028 1461.788208,803.874023 1480.981201,796.795593   C1500.258057,789.686035 1518.408691,793.152344 1536.776123,802.285767   C1532.027466,812.548706 1527.403687,822.541870 1522.523682,833.088928   C1520.344360,831.348877 1518.521484,829.352905 1516.265747,828.215698   C1512.649658,826.392822 1508.840210,824.715881 1504.919800,823.850464   C1503.326660,823.498718 1500.196655,825.017761 1499.623047,826.436584   C1498.917969,828.180542 1499.388062,831.676758 1500.697998,832.714661   C1504.368530,835.623108 1508.776733,837.583923 1512.812256,840.052124   C1519.111572,843.904846 1526.595581,846.733765 1531.364258,852.000610   C1544.601196,866.620117 1540.370239,885.156799 1528.282593,898.093140   C1519.408691,907.589966 1507.752808,911.350220 1494.820190,911.903625   C1480.932129,912.497864 1468.463501,908.140198 1456.272217,902.224365   C1453.365723,900.814026 1452.193359,899.558838 1453.940063,896.221436   C1458.540405,887.431152 1462.792725,878.458740 1467.453857,869.011108   C1470.161255,871.127380 1472.483032,872.882324 1474.739014,874.718201   C1479.541138,878.625671 1485.061646,880.617859 1491.159546,879.793030   C1493.101440,879.530396 1495.705566,877.661316 1496.314941,875.931458   C1496.891479,874.294739 1495.878540,870.954773 1494.457642,869.983826   C1490.950806,867.587463 1486.895264,865.903076 1482.906250,864.320801   C1472.110352,860.038513 1462.578735,854.381958 1457.908081,842.658142  z"/>
<path fill="#F60202" opacity="1.000000" stroke="none" d=" M360.988129,659.993042   C360.990326,586.206482 360.990326,512.918396 360.990326,439.094330   C358.875641,439.094330 357.091797,439.094391 355.307953,439.094330   C337.314606,439.093781 319.319458,438.957184 301.329163,439.191498   C297.009155,439.247772 295.669189,437.462311 295.695465,433.671631   C295.705872,432.172394 295.730469,430.671539 295.678741,429.173828   C295.549286,425.423248 297.118042,423.952698 301.063416,423.984070   C321.387939,424.145691 341.714447,424.058044 362.040283,424.057861   C386.697845,424.057617 411.355377,424.057892 436.012939,424.057922   C437.999573,424.057922 439.986176,424.057922 442.865326,424.057922   C442.865326,428.605225 443.130402,432.879974 442.643341,437.067230   C442.545013,437.912262 439.602234,438.992493 437.963318,439.005341   C420.137634,439.145081 402.310486,439.093719 384.483734,439.094299   C382.667969,439.094360 380.852173,439.094269 378.838959,439.094269   C378.838959,458.656525 378.838959,477.904968 378.838959,497.153381   C378.838959,554.632141 378.839783,612.110962 378.837860,669.589722   C378.837646,676.047363 378.830444,676.049927 372.201019,676.062195   C368.890778,676.068359 365.580505,676.063232 360.985931,676.063232   C360.985931,670.650696 360.985931,665.571106 360.988129,659.993042  z"/>
<path fill="#F80101" opacity="1.000000" stroke="none" d=" M1273.340454,885.999023   C1273.339844,857.855835 1273.324707,830.212952 1273.338867,802.570068   C1273.343018,794.558350 1273.540161,794.393494 1281.275757,794.392151   C1290.934082,794.390503 1300.596191,794.549072 1310.249146,794.321533   C1314.649048,794.217834 1316.031372,795.904480 1316.017212,800.185669   C1315.901733,834.988770 1315.888428,869.792603 1316.024780,904.595520   C1316.042725,909.194458 1314.441162,910.759460 1309.907104,910.654785   C1299.754517,910.420349 1289.586060,910.361389 1279.437988,910.677185   C1274.643677,910.826416 1273.249146,908.755981 1273.322876,904.483276   C1273.426514,898.490356 1273.341431,892.494080 1273.340454,885.999023  z"/>
<path fill="#5C0302" opacity="1.000000" stroke="none" d=" M898.384644,910.864136   C883.955017,911.024109 869.958740,910.984741 855.965393,911.170593   C851.085266,911.235291 850.498291,908.547852 850.956970,904.711304   C852.755920,889.665100 854.551514,874.618530 856.304932,859.566956   C859.849731,829.137695 863.360779,798.704468 866.899475,768.274475   C867.591919,762.320068 868.414734,756.380188 869.048340,750.419861   C869.452393,746.618774 871.209961,744.895630 875.212952,744.929932   C890.542236,745.061279 905.875183,745.113586 921.202637,744.898743   C925.961548,744.832031 927.601196,746.954834 928.215698,751.284424   C931.351318,773.376282 934.658142,795.443787 937.911133,817.518982   C937.982300,818.002075 938.123352,818.474854 938.532837,820.277283   C940.496155,809.212341 942.193909,799.385559 943.991516,789.576965   C946.332458,776.803040 948.863098,764.062744 951.079773,751.267700   C951.872803,746.690002 953.915527,744.805908 958.738281,744.887024   C973.398010,745.133911 988.066711,745.117432 1002.727234,744.895752   C1007.531738,744.823120 1009.621216,746.483093 1010.073181,751.342712   C1013.265503,785.665466 1016.625122,819.972717 1019.945984,854.283447   C1021.533875,870.689575 1023.142456,887.093750 1024.764404,903.496521   C1025.442749,910.356018 1024.835571,911.110962 1018.074402,911.126343   C1006.409973,911.152832 994.745422,911.152710 983.080994,911.126038   C976.810425,911.111633 976.241882,910.538513 975.989868,904.328857   C974.969971,879.197937 973.956238,854.066772 972.934631,828.935974   C972.908081,828.282776 972.817200,827.632202 972.219299,826.915955   C970.167480,838.132385 968.140198,849.353394 966.057983,860.564148   C963.290710,875.462830 960.346985,890.330444 957.769592,905.261597   C956.983643,909.814758 954.884033,911.349121 950.394653,911.209290   C941.904480,910.944824 933.400208,911.151062 924.901855,911.128418   C918.248718,911.110657 917.916260,910.648682 916.900513,903.820923   C913.397522,880.272156 909.799194,856.737427 906.232300,833.198120   C906.114319,832.419617 905.942688,831.649292 905.336853,830.941223   C904.631409,843.037231 903.905640,855.132080 903.226013,867.229553   C902.506775,880.032776 901.908447,892.843750 901.046509,905.637085   C900.928772,907.384583 899.591736,909.049927 898.384644,910.864136  M979.961609,908.936646   C992.123657,909.001953 1004.285706,909.088867 1016.447815,909.124451   C1023.347168,909.144592 1023.375244,909.103943 1022.682251,902.081482   C1021.079041,885.834229 1019.413818,869.592957 1017.831543,853.343628   C1014.505554,819.187195 1011.175171,785.031128 1007.982239,750.862183   C1007.688293,747.716309 1006.332642,747.031738 1003.556152,747.045227   C988.391541,747.118896 973.225708,747.153809 958.061829,747.021484   C954.871399,746.993652 953.720581,748.293701 953.189636,751.244446   C949.504028,771.730103 945.640076,792.183655 941.957520,812.669922   C940.820618,818.994751 940.069946,825.389099 939.142395,831.751587   C937.650391,829.678833 937.237244,827.612244 936.933716,825.529602   C933.331421,800.809998 929.698608,776.094666 926.216187,751.358154   C925.794800,748.365356 924.895813,746.994751 921.620605,747.022949   C906.123413,747.156616 890.624390,747.115906 875.126343,747.054321   C872.506470,747.043945 871.297729,747.850281 870.984436,750.675354   C869.534363,763.751404 867.806946,776.796326 866.282043,789.864441   C862.673645,820.788757 859.116943,851.719116 855.554138,882.648743   C854.569824,891.193909 853.637634,899.745056 852.632202,908.733704   C854.954285,908.899780 856.574280,909.112305 858.194885,909.116150   C870.026794,909.144470 881.861511,908.991150 893.689575,909.207642   C897.723083,909.281433 899.192871,908.036011 899.353516,903.895874   C900.509583,874.102173 901.879028,844.316772 903.180908,814.528748   C903.260071,812.717773 903.340454,810.906860 903.420227,809.095886   C904.833191,810.721558 905.183044,812.313293 905.424805,813.921204   C909.980835,844.223938 914.570862,874.521729 918.998230,904.843262   C919.444397,907.898987 920.406433,909.220703 923.621643,909.170105   C932.785034,909.025879 941.953003,909.047607 951.117188,909.163025   C954.026978,909.199585 955.263977,907.973755 955.760254,905.210815   C960.470459,878.986755 965.276978,852.779907 969.999878,826.558044   C971.076843,820.578613 971.937622,814.560181 972.897888,808.559692   C974.164246,810.577942 974.357300,812.528259 974.436829,814.483093   C975.636475,843.953979 976.805359,873.426147 978.046082,902.895264   C978.126770,904.812195 978.733154,906.706909 979.961609,908.936646  z"/>
<path fill="#F80101" opacity="1.000000" stroke="none" d=" M1286.869629,783.083923   C1276.269409,779.297974 1266.763916,764.175232 1269.577637,756.053467   C1276.073242,737.303955 1288.861816,732.334778 1301.976440,736.196167   C1313.022095,739.448181 1322.754150,753.660278 1320.175415,761.736267   C1314.252075,780.287048 1302.489502,787.944763 1286.869629,783.083923  z"/>
<path fill="#020000" opacity="1.000000" stroke="none" d=" M892.010010,500.079468   C908.797363,467.963562 934.049561,446.941132 969.275452,438.870758   C984.131531,435.467194 999.000671,435.309174 1014.333679,438.018311   C1049.030396,444.148956 1074.437012,462.906342 1092.765015,492.146698   C1100.852295,505.048828 1105.854736,519.260132 1107.878662,534.380981   C1114.526123,584.046143 1088.119873,630.947327 1043.945557,652.319824   C1034.435913,656.920776 1023.981689,659.856201 1013.679382,662.421387   C1007.678833,663.915527 1001.117249,663.302795 994.805603,663.359009   C988.817200,663.412231 982.713928,663.766235 976.863708,662.783081   C969.531128,661.550659 962.176392,659.688232 955.236694,657.036621   C940.062378,651.238647 926.420410,642.783203 914.789124,631.287292   C896.942017,613.647766 885.431824,592.519043 881.390869,567.786621   C877.560791,544.344727 880.961426,521.723511 892.010010,500.079468  z"/>
<path fill="#030000" opacity="1.000000" stroke="none" d=" M161.040527,553.384766   C174.988770,553.895996 188.451141,554.948242 201.895050,554.749939   C212.994873,554.586182 223.456421,556.190247 233.811478,560.152039   C247.642090,565.443481 255.846024,575.487976 260.347595,589.152649   C271.277466,622.330627 249.496735,651.440063 222.574524,658.251343   C218.056610,659.394348 213.140106,658.900085 208.426498,659.355957   C205.813354,659.608704 203.241882,660.653198 200.646698,660.672363   C183.839035,660.796082 167.030029,660.735779 149.772400,660.735779   C149.772400,658.701416 149.772385,656.767395 149.772385,654.833374   C149.772400,623.672180 149.772064,592.511047 149.772675,561.349854   C149.772827,553.387817 149.774216,553.387817 157.547058,553.384705   C158.546921,553.384338 159.546799,553.384705 161.040527,553.384766  z"/>
<path fill="#040000" opacity="1.000000" stroke="none" d=" M182.994141,538.170471   C172.834091,538.172180 163.171341,538.075256 153.512527,538.228027   C150.268417,538.279297 148.751099,537.592590 148.766830,533.876892   C148.894516,503.727783 148.893127,473.577637 148.769928,443.428467   C148.754944,439.761810 150.170685,438.963867 153.482101,439.026520   C164.306015,439.231354 175.147263,438.890472 185.956909,439.348297   C193.195877,439.654846 200.647202,440.054443 207.558472,441.996338   C225.515274,447.041718 235.548721,459.269165 239.055161,477.758484   C241.027695,488.159576 240.427124,498.189758 237.330658,507.815033   C231.877289,524.766785 218.995758,533.816467 201.898880,536.882935   C195.880264,537.962402 189.634827,537.777100 182.994141,538.170471  z"/>
<path fill="#0F0000" opacity="1.000000" stroke="none" d=" M1392.366943,826.553101   C1394.088867,830.331787 1395.540527,833.854980 1397.302002,838.130371   C1389.679932,838.130371 1383.586914,838.130371 1377.057251,838.130371   C1376.901978,833.186096 1377.867798,828.891846 1381.594727,825.850342   C1385.019409,823.055359 1388.690674,823.821350 1392.366943,826.553101  z"/>
<path fill="#0F0000" opacity="1.000000" stroke="none" d=" M1090.684814,879.072266   C1084.082397,880.858765 1080.044922,879.324036 1078.057495,873.387939   C1073.385498,859.434143 1073.323975,845.234558 1078.299683,831.384888   C1079.265869,828.695801 1083.008179,825.762390 1085.822144,825.351257   C1088.308228,824.987976 1092.824585,827.327209 1093.796753,829.603760   C1100.271118,844.764465 1100.135864,860.239197 1093.954224,875.558044   C1093.432129,876.852051 1092.026489,877.789429 1090.684814,879.072266  z"/>
<path fill="#010000" opacity="1.000000" stroke="none" d=" M1204.216553,861.077209   C1204.355469,861.952393 1204.130981,862.624878 1203.906372,863.297363   C1203.660400,863.137939 1203.182983,862.923523 1203.205566,862.827820   C1203.363403,862.162903 1203.624878,861.522705 1204.216553,861.077209  z"/>
<path fill="#010000" opacity="1.000000" stroke="none" d=" M1204.547852,859.747681   C1204.283325,859.730530 1204.230103,859.525085 1204.176758,859.319641   C1204.370850,859.399536 1204.565063,859.479492 1204.547852,859.747681  z"/>
<path fill="#FA0101" opacity="1.000000" stroke="none" d=" M979.528320,908.774292   C978.733154,906.706909 978.126770,904.812195 978.046082,902.895264   C976.805359,873.426147 975.636475,843.953979 974.436829,814.483093   C974.357300,812.528259 974.164246,810.577942 972.897888,808.559692   C971.937622,814.560181 971.076843,820.578613 969.999878,826.558044   C965.276978,852.779907 960.470459,878.986755 955.760254,905.210815   C955.263977,907.973755 954.026978,909.199585 951.117188,909.163025   C941.953003,909.047607 932.785034,909.025879 923.621643,909.170105   C920.406433,909.220703 919.444397,907.898987 918.998230,904.843262   C914.570862,874.521729 909.980835,844.223938 905.424805,813.921204   C905.183044,812.313293 904.833191,810.721558 903.420227,809.095886   C903.340454,810.906860 903.260071,812.717773 903.180908,814.528748   C901.879028,844.316772 900.509583,874.102173 899.353516,903.895874   C899.192871,908.036011 897.723083,909.281433 893.689575,909.207642   C881.861511,908.991150 870.026794,909.144470 858.194885,909.116150   C856.574280,909.112305 854.954285,908.899780 852.632202,908.733704   C853.637634,899.745056 854.569824,891.193909 855.554138,882.648743   C859.116943,851.719116 862.673645,820.788757 866.282043,789.864441   C867.806946,776.796326 869.534363,763.751404 870.984436,750.675354   C871.297729,747.850281 872.506470,747.043945 875.126343,747.054321   C890.624390,747.115906 906.123413,747.156616 921.620605,747.022949   C924.895813,746.994751 925.794800,748.365356 926.216187,751.358154   C929.698608,776.094666 933.331421,800.809998 936.933716,825.529602   C937.237244,827.612244 937.650391,829.678833 939.142395,831.751587   C940.069946,825.389099 940.820618,818.994751 941.957520,812.669922   C945.640076,792.183655 949.504028,771.730103 953.189636,751.244446   C953.720581,748.293701 954.871399,746.993652 958.061829,747.021484   C973.225708,747.153809 988.391541,747.118896 1003.556152,747.045227   C1006.332642,747.031738 1007.688293,747.716309 1007.982239,750.862183   C1011.175171,785.031128 1014.505554,819.187195 1017.831543,853.343628   C1019.413818,869.592957 1021.079041,885.834229 1022.682251,902.081482   C1023.375244,909.103943 1023.347168,909.144592 1016.447815,909.124451   C1004.285706,909.088867 992.123657,909.001953 979.528320,908.774292  z"/>
</svg>